<svg width="810" height="162" viewBox="0 0 810 162" fill="none" xmlns="http://www.w3.org/2000/svg">
<path d="M409.97 42.4946C415.603 41.0308 418.986 41.0285 424.805 41.0725C429.999 41.1117 440.397 41.5997 449.28 45.5328C455.25 48.1758 458.489 50.2209 463.309 54.6233C466.67 57.6928 468.976 60.8356 470.958 63.418C472.94 66.0004 475.995 71.4758 476.895 73.2841C477.5 74.5002 478.496 77.3655 478.761 78.55C479.025 79.735 479.536 86.6429 479.536 86.6429C479.5 88.0011 479.527 91.2717 477.935 93.6018C476.344 95.9322 473 96.5005 471.899 96.9027L409.394 116.959C408.691 117.186 408.616 118.309 408.667 118.843C408.526 120.52 410.447 123.21 415.651 125.433C421.221 127.813 426.415 127.276 428.092 127.417C431.239 127.116 439.871 126.517 445.324 122.589C451 118.5 451.23 117.94 455.788 113.42C459.352 109.885 464.979 111.48 466.578 112.385C468.178 113.292 475.716 119.373 476.517 121.414C477.318 123.454 478.376 128.495 476.203 132.333C473.487 137.131 467.624 142.23 460.005 147.951C454.227 152.29 440.784 155.692 434.49 156.295C427.432 156.82 410.168 156.267 397.575 149.852C384.982 143.436 377.387 130.16 375.164 124.324C371.656 117.703 365.96 100.252 371.243 83.4118C377.832 62.4042 390.911 52.5234 390.963 52.4837C390.963 52.4837 401.855 44.6035 409.97 42.4946ZM443.798 78.2717C439.935 74.2562 435.441 66.8224 418.573 70.7077C403.379 74.2075 401.864 90.4556 401.906 90.9078C401.993 91.8069 402.336 92.2284 402.935 92.1709L424.084 85.6063C430.113 83.8185 442.432 80.1266 443.477 79.6632C444.253 79.3193 444.198 78.6871 443.798 78.2717Z" fill="#34D399"/>
<path d="M185 80.5945V151.426L185.905 154.133L187.262 155.486L189.976 156.388H214.406C214.406 156.388 216.202 156.122 217.12 155.486C218.049 154.843 218.39 154.222 218.929 153.23C219.462 152.251 219.834 152.328 219.834 150.523C219.834 148.719 219.5 113.304 219.5 89.1665C219.5 88.2855 220.201 85.8291 220.5 85.0004C220.666 84.5413 222 82.0004 222 82.0004C222 82.0004 222.691 80.9822 223.5 80.0004C224.293 79.0377 225.715 77.8875 225.715 77.8875C225.715 77.8875 226.983 76.6209 227.977 76.0829C228.959 75.5515 230.692 75.1806 230.692 75.1806C230.692 75.1806 232.263 75.0115 233.5 75.0004C235.09 74.9862 236.411 74.9445 238 75.0004C239.434 75.0508 240.5 75.0004 242 75.1806C243.5 75.3608 246 77.0004 246 77.0004C246 77.0004 248.206 79.1972 249 80.0004C250.067 81.0795 251 83.0004 251 83.0004C251 83.0004 251.954 86.158 251.954 87.5004V89.1665V97.7384V116.687V145.109V152.328C251.954 152.328 252.492 153.962 253.311 154.584C254.5 155.486 254.753 155.749 256 156.011C256.692 156.156 258 156.011 258 156.011H281C281.905 156.011 282.897 155.787 283.5 155.486C284.103 155.185 284.707 155.215 285.431 154.133C286.155 153.05 286.638 151.877 286.788 151.426V149.621V147.816V88.7153C286.788 88.7153 286.648 87.3292 286.788 86.4595C287.003 85.1343 287.494 84.4749 288.146 83.3014C288.882 81.9753 289.367 81.2475 290.408 80.1433C291.353 79.1402 291.99 78.674 293.122 77.8875C294.291 77.0757 294.968 76.6145 296.289 76.0829C297.64 75.5389 298.459 75.3301 299.908 75.1806C300.962 75.0718 303.052 75.1806 303.28 75.1806C303.508 75.1806 305.939 75.4851 308 76.0004C310 76.5004 310.363 76.6247 311 77.0004C312.187 77.7012 312.769 77.9773 314.384 79.4888C316 81.0004 316.5 82.7745 317.099 84.0004C317.697 85.2263 318.456 87.5004 318.5 89.0004C318.544 90.5004 318.456 90.9711 318.456 90.9711V151.426C318.456 151.426 318.702 153.845 320 155C321.004 155.893 323.5 156 323.5 156H327.5H336H346.5C349.699 156 350.576 155.133 351 154.5C351.424 153.867 351.866 152.351 351.933 151.426C352 150.5 351.933 148.126 351.933 146.012V139.696V122.101V96.385L351.481 83.3014C351.631 84.3541 351.249 81.3696 351.028 80.1433C350.21 75.5912 349 72.5004 347.409 68.8644C345.693 64.9422 341 59.0004 339.718 57.5855C339.041 56.8374 331.575 50.8181 327.051 48.5624C322.527 46.3066 319.813 45.8554 317.099 44.9531C314.927 44.2313 311.048 44.1356 307.146 44.0508C302.012 43.9391 299.056 43.9117 294.027 44.9531C289.268 45.9385 284.526 47.9608 282.264 49.0135C282.264 49.0135 277.75 51.8963 275.026 53.9762C272.835 55.6495 269.597 58.4878 269.597 58.4878H268.693C268.693 58.4878 266.884 56.1726 265.526 54.8786C262.372 51.872 260.019 50.7679 256.026 49.0135C251.672 47.1009 244.716 45.33 244.716 45.33C244.716 45.33 234.92 43.696 228.882 44.0508C223.277 44.3801 221.171 44.3517 215.763 45.8554C211.834 46.9478 208.552 48.5453 204.905 50.367C197.868 53.8826 194.489 57.6279 190.429 64.3528C186.971 70.0807 185 79.0004 185 80.5945Z" fill="#34D399"/>
<path d="M168 19C168 28.9411 159.941 37 150 37C140.059 37 132 28.9411 132 19C132 9.05887 140.059 1 150 1C159.941 1 168 9.05887 168 19Z" fill="#34D399"/>
<path d="M137.278 46.809C135.697 48.1204 134.576 49.9747 134.576 51.3314C134.576 52.6881 133.676 149.015 134.126 150.824C134.576 152.633 135.223 153.008 136.378 153.99C137.699 155.114 139.08 155.799 140.431 155.799C141.782 155.799 157.993 156.251 160.695 155.799C163.397 155.347 163.834 155.309 165.199 153.99C166.22 153.003 167 152.181 167 150.824V51.3314C167 50.4269 166.029 48.547 164.748 47.2612C163.468 45.9755 162.046 45 160.695 45H142.232C140.431 45.0001 138.866 45.4928 137.278 46.809Z" fill="#34D399"/>
<path d="M54.5275 60.807C55.6902 62.1592 57.807 64 57.807 64C57.807 64 59.3778 62.4342 60.1494 61.2632C60.8121 60.2574 61.5549 58.5263 61.5549 58.5263C61.5549 58.5263 62.0233 57.6141 62.4918 55.7895C62.7459 54.8 62.8693 54.4128 62.9603 53.5088C63.0496 52.6224 62.9603 52.5965 62.9603 51.6843C62.9603 51.2281 62.0233 48.9474 62.0233 48.9474C62.0233 48.9474 61.2466 47.4053 60.6179 46.6668C59.9371 45.867 59.296 45.6008 58.2754 45.2983C57.0502 44.9353 56.1977 44.8673 54.996 45.2983C53.8967 45.6927 53.3947 46.2396 52.6536 47.1229C51.8771 48.0483 51.571 48.7069 51.2481 49.8597C50.8148 51.4064 51.0381 52.3749 51.2481 53.965C51.4405 55.4219 51.5581 56.278 52.1851 57.6141C52.8392 59.0078 53.5172 59.6321 54.5275 60.807Z" fill="#34D399"/>
<path d="M102.034 134.573C106.913 137.345 114.694 141.356 115.598 139.547C116.502 137.739 115.598 116.486 115.598 115.129C115.598 113.773 114.632 112.797 113.79 111.964C112.833 111.019 111.931 110.927 110.625 110.608C108.738 110.146 107.593 110.608 105.651 110.608C103.003 110.608 101.479 111.062 98.8692 110.608C96.2832 110.158 94.7495 109.763 92.5393 108.347C90.4368 106.999 89.5755 105.777 88.018 103.825C86.8268 102.332 86.0258 101.524 85.3052 99.7553C84.6259 98.0875 84.6063 97.0226 84.401 95.2335C84.1192 92.7774 84.401 91.3752 84.401 88.9029C84.401 86.4307 84.2582 85.0405 84.401 82.5724C84.5654 79.7298 85.1543 78.1809 85.3052 75.3375C85.4176 73.2214 85.8789 71.9512 85.3052 69.9113C84.7477 67.9289 84.2447 66.6186 82.5924 65.3895C81.1133 64.2892 79.9126 64.1186 78.0711 64.033C75.8895 63.9315 74.317 63.9836 72.6455 65.3895C71.1348 66.6603 70.8545 67.9937 70.3849 69.9113C69.8809 71.9696 69.986 73.2563 70.3849 75.3375C70.817 77.5921 71.9582 78.5734 72.6455 80.7637C73.4544 83.341 74.002 84.3812 73.5498 87.0942C73.2596 88.8361 72.1491 90.1867 70.3849 90.2595C69.0413 90.3149 68.2967 89.7085 67.22 88.9029C65.6906 87.7588 65.4768 86.4789 64.5072 84.8333C63.3045 82.7922 63.9777 80.3265 61.7944 79.4071C60.4925 78.8589 59.4038 78.7062 58.1773 79.4071C56.0311 80.6337 57.3094 83.4229 58.1773 85.7377C60.8901 92.9726 64.4889 97.1571 69.4806 103.825C74.1297 110.035 77.0571 113.312 82.5924 118.747C89.5782 125.606 93.5221 129.737 102.034 134.573Z" fill="#34D399"/>
<path d="M25.0496 1H6.09216C4.46703 1.00001 3.30468 1.31959 2.02984 2.24999C0.667987 3.2439 0.224361 4.74999 0.22438 5.58333V12.6667V24.75V44.3333V61.8333V71.8333C0.22438 76.7149 -0.280475 79.4741 0.22438 84.3333C0.686474 88.781 0.346215 93.5662 1.57846 99.3333C2.64685 104.333 5.18941 113.083 5.18941 113.083C5.18941 113.083 7.56978 120.476 10.1545 124.75C12.8523 129.211 15.0525 131.955 18.5061 135.583C21.7243 138.964 23.9179 140.31 27.7578 143.083C31.8409 146.032 34.3834 147.65 39.042 149.75C43.1997 151.624 45.6565 152.315 50.1018 153.5L50.1269 153.507C54.1373 154.576 56.5453 155.217 60.7076 155.583C65.4483 156 72.8946 156 72.8946 156H113.518C117.501 156 112.522 155.077 109.535 153.693C106.547 152.31 105.844 151.833 105.844 151.833C105.844 151.833 100.16 148.657 96.3657 146.417L96.2651 146.357C92.1672 143.938 89.8263 142.555 85.9842 139.75C81.2879 136.321 78.5056 134.759 74.2487 131C69.3718 126.693 66.1996 123.422 62.0618 118.5C58.1043 113.793 55.1946 111.128 51.9073 106C47.6501 99.3589 45.004 93.5 43.7827 90.5833C42.235 86.8874 40.8501 83.0833 40.1717 78.9166C39.6374 75.6347 39.4934 73.9166 39.042 70.5833C38.5906 67.25 39.042 8.08333 39.042 8.08333C39.042 8.08333 39.042 4.74995 37.2365 3.08332C35.431 1.41669 34.5283 0.999988 33.1742 1H25.0496Z" fill="#34D399"/>
<path d="M519.947 0H483.462C481.965 0 481.902 1.24153 482.058 1.8623L482.526 3.7246L498.898 57.7313L519.48 125.705C521.507 132.844 526.028 147.96 527.899 151.312C529.77 154.664 534 155.968 535.384 155.968C543.496 156.041 558.87 155.968 560.175 155.968C561.654 155.968 566.018 155.269 567.192 153.174C568.365 151.08 574.05 134.403 577.013 125.71L577.015 125.705C578.886 119.498 583.096 105.779 584.967 100.564C586.838 95.3497 585.746 90.0111 584.967 87.9937L574.676 51.2132L571.869 40.0394L570.466 36.7804C568.969 34.9181 567.66 36.0045 567.192 36.7804L566.256 39.1083C561.734 55.7138 552.504 89.3904 551.755 91.2527C551.007 93.115 549.261 92.0286 548.481 91.2527C541.776 63.9389 527.993 8.38035 526.496 4.65575C524.999 0.93115 521.507 0 519.947 0Z" fill="white"/>
<path d="M572.455 0.206008C570.965 0.579107 570.903 2.22696 571.058 3.00425L572.455 9.53335L588.29 62.2336C595.431 87.8842 611.67 139.559 615.768 146.647C619.867 153.736 623.686 156.286 625.549 155.975H654.424C657.405 155.975 659.392 151.622 660.013 149.446L671.19 114.468L679.574 85.086C681.592 74.9812 686.653 52.9062 690.751 45.4442C694.85 37.9822 700.561 36.4276 703.356 36.5831H738.5C752 36.5831 753.764 36.3965 756.372 37.5158C759.633 38.9149 761.03 39.8477 764.756 43.1123C767.736 45.724 769.413 49.797 769.879 51.507C770.344 53.6835 770.996 59.1556 769.879 63.6328C768.481 69.2293 767 72.5 762.5 76.5C761.692 77.2183 760.5 78.5 756.989 79.0231H733.163C726.953 79.1786 714.975 79.0231 713.602 79.0231C712.769 79.0231 711.76 79.2065 710.342 79.9559C708.923 80.7052 706.916 81.958 705.318 83.8613C704.138 85.2664 703.569 86.1793 702.89 87.8843C702.335 89.2795 701.959 91.6152 701.959 91.6152V122.862C702.114 132.345 702.331 151.778 701.959 153.643C701.586 155.509 702.735 155.975 703.356 155.975H707.082H719.656H739.683C741.546 155.975 741.701 154.42 741.546 153.643V132.656V117.266C741.546 114.654 743.098 114.312 743.874 114.468H747.6H750.935H761.03C767.364 114.468 774.536 112.291 777.33 111.203C779.504 110.737 785.807 107.938 793.631 100.476C803.236 91.3155 805.905 83.2916 806.945 80.1657L807 80C807.841 77.4766 808.507 74.5443 809 71.5823C809.493 68.6203 809.504 64.8323 809.5 60.5C809.496 56.255 809.548 53.851 809 49.6415C808.298 44.254 806.827 39.0704 805.74 36.1167C804.808 33.4739 801.548 26.4161 795.96 19.3272C788.974 10.4661 776.97 5.92405 772.207 3.93686C768.197 2.26336 759.23 0.493671 756.372 0.206008H695.408H664.204C661.969 0.206008 660.168 2.69324 659.547 3.93686L658.616 6.7351L651.63 36.5831C647.283 53.3725 638.496 87.3246 638.123 88.817C637.751 90.3094 636.726 89.4388 636.261 88.817L624.152 47.776L616.234 22.1255C614.526 16.6844 610.925 5.24273 610.18 3.00425C609.434 0.765774 606.764 0.206057 605.522 0.206008H585.962C582.08 0.0505493 573.946 -0.167092 572.455 0.206008Z" fill="white"/>
</svg>
